<svg width="116" height="128" viewBox="0 0 116 128" fill="none" xmlns="http://www.w3.org/2000/svg">
<path d="M103.395 73.8511V53.7786C105.648 53.3248 107.766 52.3425 109.579 50.9101C111.392 49.4778 112.85 47.6351 113.837 45.5291C114.824 43.4231 115.312 41.1121 115.262 38.7807C115.213 36.4492 114.627 34.1617 113.551 32.1009C112.476 30.0401 110.941 28.263 109.069 26.9115C107.196 25.5599 105.039 24.6714 102.768 24.3167C100.497 23.962 98.1761 24.1511 95.9902 24.8688C93.8042 25.5864 91.8138 26.8129 90.1778 28.4502L71.5988 16.7242C71.6689 16.1325 71.7052 15.5371 71.7076 14.9412C71.7049 11.3112 70.4013 7.80613 68.04 5.07989C65.6788 2.35365 62.4211 0.592403 58.8747 0.124679C55.3283 -0.343046 51.7354 0.514705 48.7661 2.53792C45.7969 4.56114 43.6542 7.61164 42.7376 11.1204C41.8211 14.6291 42.1933 18.3565 43.785 21.6072C45.3766 24.8579 48.0788 27.4098 51.3877 28.7871C54.6965 30.1643 58.3859 30.2727 61.7677 29.0921C65.1495 27.9115 67.9927 25.5225 69.7669 22.3707L86.9739 33.2561C86.1208 35.3052 85.7281 37.5216 85.8244 39.744C85.9206 41.9665 86.5034 44.1393 87.5303 46.1046C88.5573 48.0699 90.0027 49.7783 91.7614 51.1057C93.5202 52.4331 95.5481 53.3462 97.698 53.7786V73.8511C94.1056 74.5693 90.9052 76.6189 88.72 79.6009C86.5347 82.5829 85.5212 86.2836 85.8766 89.9825C86.2321 93.6814 87.9311 97.1136 90.6429 99.6107C93.3546 102.108 96.8849 103.491 100.546 103.491C104.208 103.491 107.738 102.108 110.45 99.6107C113.162 97.1136 114.861 93.6814 115.216 89.9825C115.572 86.2836 114.558 82.5829 112.373 79.6009C110.187 76.6189 106.987 74.5693 103.395 73.8511V73.8511Z" fill="#E63E11"/>
<path d="M71.7081 63.8148C71.7101 60.9782 70.9177 58.1994 69.4231 55.8026C67.9285 53.4058 65.7934 51.4896 63.2668 50.2775C60.7402 49.0655 57.9262 48.6074 55.1529 48.9569C52.3796 49.3064 49.7614 50.4489 47.6034 52.2513C45.4455 54.0536 43.8368 56.4416 42.965 59.1366C42.0932 61.8317 41.9942 64.7227 42.6795 67.4727C43.3648 70.2227 44.8061 72.7183 46.8355 74.6684C48.8649 76.6186 51.3987 77.9429 54.1414 78.4871V98.3558C50.5771 99.0707 47.3985 101.097 45.2158 104.045L28.6194 93.5754C29.3333 91.5486 29.6081 89.3893 29.4252 87.2448C29.2423 85.1003 28.6059 83.0211 27.5594 81.1489C26.513 79.2768 25.081 77.6557 23.3613 76.3963C21.6415 75.1369 19.6744 74.2687 17.5941 73.851V53.7785C21.1865 53.0603 24.3869 51.0107 26.5722 48.0287C28.7574 45.0468 29.771 41.346 29.4155 37.6471C29.0601 33.9482 27.361 30.516 24.6493 28.0189C21.9375 25.5218 18.4072 24.1385 14.7458 24.1385C11.0844 24.1385 7.5541 25.5218 4.84234 28.0189C2.13059 30.516 0.431551 33.9482 0.0760971 37.6471C-0.279357 41.346 0.734223 45.0468 2.91945 48.0287C5.10469 51.0107 8.30512 53.0603 11.8975 53.7785V73.851C9.60525 74.3082 7.4529 75.3119 5.61789 76.7793C3.78289 78.2467 2.31779 80.1359 1.34339 82.291C0.368998 84.446 -0.0867865 86.8054 0.0136229 89.1744C0.114032 91.5434 0.76776 93.8542 1.9209 95.9164C3.07404 97.9786 4.69357 99.733 6.64596 101.035C8.59835 102.337 10.8277 103.149 13.1501 103.405C15.4726 103.661 17.8216 103.352 20.0036 102.506C22.1856 101.659 24.1381 100.297 25.6999 98.5341L42.6979 109.284C42.3878 110.51 42.2305 111.771 42.2294 113.037C42.229 115.873 43.0228 118.651 44.5184 121.047C46.0139 123.442 48.1496 125.357 50.6764 126.568C53.2032 127.779 56.017 128.236 58.7898 127.885C61.5626 127.535 64.1802 126.392 66.3373 124.589C68.4945 122.786 70.1024 120.398 70.9735 117.703C71.8446 115.008 71.9431 112.118 71.2576 109.368C70.572 106.619 69.1305 104.123 67.1013 102.174C65.072 100.224 62.5385 98.8999 59.7962 98.3558V78.4871C63.1493 77.8218 66.1707 75.9948 68.3435 73.3185C70.5163 70.6422 71.7056 67.2828 71.7081 63.8148V63.8148Z" fill="#E63E11"/>
</svg>
